<svg width="30.000000" height="30.000000" viewBox="0 0 30 30" fill="none" xmlns="http://www.w3.org/2000/svg" xmlns:xlink="http://www.w3.org/1999/xlink">
	<desc>
			Created with Pixso.
	</desc>
	<defs/>
	<path id="Vector" d="M21.7209 0L8.27869 0C3.71387 0 0 3.71405 0 8.27893L0 21.7211C0 26.2861 3.71387 30 8.27869 30L21.7209 30C26.2861 30 30 26.2859 30 21.7211L30 8.27893C30.0001 3.71405 26.2861 0 21.7209 0ZM27.3384 21.7211C27.3384 24.8185 24.8185 27.3383 21.7211 27.3383L8.27869 27.3383C5.18152 27.3384 2.66174 24.8185 2.66174 21.7211L2.66174 8.27893C2.66174 5.1817 5.18152 2.66174 8.27869 2.66174L21.7209 2.66174C24.8182 2.66174 27.3383 5.1817 27.3383 8.27893L27.3383 21.7211L27.3384 21.7211Z" fill="#21243D" fill-opacity="1.000000" fill-rule="nonzero"/>
	<path id="Vector" d="M15 7.27014C10.7375 7.27014 7.26978 10.7379 7.26978 15.0004C7.26978 19.2627 10.7375 22.7303 15 22.7303C19.2626 22.7303 22.7302 19.2627 22.7302 15.0004C22.7302 10.7379 19.2626 7.27014 15 7.27014ZM15 20.0684C12.2053 20.0684 9.93152 17.7949 9.93152 15.0002C9.93152 12.2054 12.2052 9.9317 15 9.9317C17.7948 9.9317 20.0685 12.2054 20.0685 15.0002C20.0685 17.7949 17.7947 20.0684 15 20.0684Z" fill="#21243D" fill-opacity="1.000000" fill-rule="nonzero"/>
	<path id="Vector" d="M23.0544 5.01318C22.5416 5.01318 22.0378 5.22083 21.6757 5.58459C21.3118 5.94659 21.1025 6.4505 21.1025 6.96515C21.1025 7.47815 21.3119 7.98193 21.6757 8.3457C22.0377 8.7077 22.5416 8.91705 23.0544 8.91705C23.5691 8.91705 24.0713 8.7077 24.4351 8.3457C24.7988 7.98193 25.0065 7.47797 25.0065 6.96515C25.0065 6.4505 24.7988 5.94659 24.4351 5.58459C24.073 5.22083 23.5691 5.01318 23.0544 5.01318Z" fill="#21243D" fill-opacity="1.000000" fill-rule="nonzero"/>
</svg>
