<svg width="36.923096" height="30.000000" viewBox="0 0 36.9231 30" fill="none" xmlns="http://www.w3.org/2000/svg" xmlns:xlink="http://www.w3.org/1999/xlink">
	<desc>
			Created with Pixso.
	</desc>
	<defs/>
	<path id="Vector" d="M36.9231 3.55151C35.55 4.15387 34.0869 4.5531 32.5615 4.74695C34.1307 3.81 35.3285 2.33771 35.8916 0.563049C34.4285 1.43536 32.8131 2.05151 31.0916 2.39539C29.7023 0.916138 27.7223 0 25.5623 0C21.3716 0 17.9977 3.40155 17.9977 7.57153C17.9977 8.17151 18.0485 8.74847 18.1731 9.29767C11.88 8.99078 6.31152 5.97461 2.5708 1.38C1.91772 2.51306 1.53467 3.81 1.53467 5.20618C1.53467 7.8277 2.88464 10.1516 4.89697 11.4969C3.68079 11.4738 2.48767 11.1208 1.47693 10.5646C1.47693 10.5877 1.47693 10.6177 1.47693 10.6477C1.47693 14.3262 4.10083 17.3815 7.5415 18.0854C6.92542 18.2538 6.25391 18.3346 5.55688 18.3346C5.07227 18.3346 4.58313 18.3069 4.1239 18.2054C5.10461 21.2031 7.8877 23.4069 11.1969 23.4785C8.62158 25.4931 5.35156 26.7069 1.81152 26.7069C1.1908 26.7069 0.595337 26.6792 0 26.6031C3.35303 28.7654 7.3269 30 11.6123 30C25.5415 30 33.157 18.4615 33.157 8.46002C33.157 8.12537 33.1454 7.80231 33.1293 7.48157C34.6316 6.41541 35.8938 5.08386 36.9231 3.55151Z" fill="#21243D" fill-opacity="1.000000" fill-rule="nonzero"/>
</svg>
