<svg width="30.000000" height="30.000000" viewBox="0 0 30 30" fill="none" xmlns="http://www.w3.org/2000/svg" xmlns:xlink="http://www.w3.org/1999/xlink">
	<desc>
			Created with Pixso.
	</desc>
	<defs/>
	<path id="fb" d="M25.6055 0L4.39453 0C1.97156 0 0 1.97156 0 4.39453L0 25.6055C0 28.0284 1.97156 30 4.39453 30L13.2422 30L13.2422 19.3945L9.72656 19.3945L9.72656 14.1211L13.2422 14.1211L13.2422 10.5469C13.2422 7.63892 15.6077 5.27344 18.5156 5.27344L23.8477 5.27344L23.8477 10.5469L18.5156 10.5469L18.5156 14.1211L23.8477 14.1211L22.9688 19.3945L18.5156 19.3945L18.5156 30L25.6055 30C28.0284 30 30 28.0284 30 25.6055L30 4.39453C30 1.97156 28.0284 0 25.6055 0Z" fill="#21243D" fill-opacity="1.000000" fill-rule="nonzero"/>
</svg>
