<svg width="30.000000" height="30.000000" viewBox="0 0 30 30" fill="none" xmlns="http://www.w3.org/2000/svg" xmlns:xlink="http://www.w3.org/1999/xlink">
	<desc>
			Created with Pixso.
	</desc>
	<defs/>
	<path id="Linkedin" d="M25.6055 0L4.39453 0C1.97156 0 0 1.97156 0 4.39453L0 25.6055C0 28.0284 1.97156 30 4.39453 30L25.6055 30C28.0284 30 30 28.0284 30 25.6055L30 4.39453C30 1.97156 28.0284 0 25.6055 0ZM10.6055 23.7891L7.08984 23.7891L7.08984 11.4844L10.6055 11.4844L10.6055 23.7891ZM10.6055 9.72656L7.08984 9.72656L7.08984 6.21094L10.6055 6.21094L10.6055 9.72656ZM22.9102 23.7891L19.3945 23.7891L19.3945 16.7578C19.3945 15.7887 18.6058 15 17.6367 15C16.6676 15 15.8789 15.7887 15.8789 16.7578L15.8789 23.7891L12.3633 23.7891L12.3633 11.4844L15.8789 11.4844L15.8789 12.147C16.7999 11.8607 17.3982 11.4844 18.5156 11.4844C20.8999 11.4869 22.9102 13.6258 22.9102 16.1536L22.9102 23.7891Z" fill="#21243D" fill-opacity="1.000000" fill-rule="nonzero"/>
</svg>
